<svg width="24" height="24" viewBox="0 0 24 24" fill="none" xmlns="http://www.w3.org/2000/svg">
<path d="M1.5 20.2484H22.5" stroke="#1B1B1B" stroke-opacity="0.96" stroke-width="1.5" stroke-linecap="round" stroke-linejoin="round"/>
<path d="M13.499 20.2484V3.74841C13.499 3.5495 13.42 3.35874 13.2794 3.21808C13.1387 3.07743 12.9479 2.99841 12.749 2.99841H3.74902C3.55011 2.99841 3.35935 3.07743 3.21869 3.21808C3.07804 3.35874 2.99902 3.5495 2.99902 3.74841V20.2484" stroke="#1B1B1B" stroke-opacity="0.96" stroke-width="1.5" stroke-linecap="round" stroke-linejoin="round"/>
<path d="M20.999 20.2484V9.74841C20.999 9.5495 20.92 9.35874 20.7794 9.21808C20.6387 9.07743 20.4479 8.99841 20.249 8.99841H13.499" stroke="#1B1B1B" stroke-opacity="0.96" stroke-width="1.5" stroke-linecap="round" stroke-linejoin="round"/>
<path d="M5.99902 6.74841H8.99902" stroke="#1B1B1B" stroke-opacity="0.96" stroke-width="1.5" stroke-linecap="round" stroke-linejoin="round"/>
<path d="M7.49902 12.7484H10.499" stroke="#1B1B1B" stroke-opacity="0.96" stroke-width="1.5" stroke-linecap="round" stroke-linejoin="round"/>
<path d="M5.99902 16.4984H8.99902" stroke="#616161" stroke-width="1.5" stroke-linecap="round" stroke-linejoin="round"/>
<path d="M16.499 16.4984H17.999" stroke="#616161" stroke-width="1.5" stroke-linecap="round" stroke-linejoin="round"/>
<path d="M16.499 12.7484H17.999" stroke="#616161" stroke-width="1.5" stroke-linecap="round" stroke-linejoin="round"/>
</svg>
