<svg width="146" height="26" viewBox="0 0 146 26" fill="none" xmlns="http://www.w3.org/2000/svg">
<path d="M20.9015 11.5738C20.2943 9.64116 18.4894 8.23853 16.3565 8.23853C16.2288 8.23853 16.102 8.24404 15.9762 8.25322C13.5236 8.44704 11.5938 10.4991 11.5938 13.0022C11.5938 15.632 13.7257 17.7649 16.3565 17.7649C16.6293 17.7649 16.8966 17.7419 17.1574 17.6978C19.3188 17.3322 20.9842 15.5107 21.1109 13.2777C21.1164 13.1868 21.1192 13.0949 21.1192 13.0022C21.1192 12.5043 21.0429 12.0248 20.9015 11.5738ZM18.3507 13.23C18.2368 14.2294 17.3862 15.0092 16.3565 15.0092C15.2496 15.0092 14.3494 14.1081 14.3494 13.0022C14.3494 11.8962 15.2496 10.9942 16.3565 10.9942C17.2135 10.9942 17.9474 11.5352 18.234 12.293C18.3176 12.5135 18.3635 12.7523 18.3635 13.0022C18.3635 13.0793 18.3589 13.1556 18.3507 13.23Z" fill="#1CB78D"/>
<path d="M39.2159 11.5738C38.6088 9.64116 36.8038 8.23853 34.6709 8.23853C34.5432 8.23853 34.4165 8.24404 34.2906 8.25322C31.8381 8.44704 29.9082 10.4991 29.9082 13.0022C29.9082 15.632 32.0402 17.7649 34.6709 17.7649C34.9437 17.7649 35.211 17.7419 35.4719 17.6978C37.6333 17.3322 39.2986 15.5107 39.4254 13.2777C39.4309 13.1868 39.4336 13.0949 39.4336 13.0022C39.4336 12.5043 39.3574 12.0248 39.2159 11.5738ZM36.6651 13.23C36.5512 14.2294 35.7006 15.0092 34.6709 15.0092C33.5641 15.0092 32.6639 14.1081 32.6639 13.0022C32.6639 11.8962 33.5641 10.9942 34.6709 10.9942C35.5279 10.9942 36.2619 11.5352 36.5485 12.293C36.632 12.5135 36.678 12.7523 36.678 13.0022C36.678 13.0793 36.6734 13.1556 36.6651 13.23Z" fill="#F0F8F0"/>
<path d="M128.45 11.5738C127.843 9.64116 126.038 8.23853 123.905 8.23853C123.778 8.23853 123.651 8.24404 123.525 8.25322C121.072 8.44704 119.143 10.4991 119.143 13.0022C119.143 15.632 121.275 17.7649 123.905 17.7649C124.178 17.7649 124.445 17.7419 124.706 17.6978C126.868 17.3322 128.533 15.5107 128.66 13.2777C128.665 13.1868 128.668 13.0949 128.668 13.0022C128.668 12.5043 128.592 12.0248 128.45 11.5738ZM125.899 13.23C125.786 14.2294 124.935 15.0092 123.905 15.0092C122.798 15.0092 121.898 14.1081 121.898 13.0022C121.898 11.8962 122.798 10.9942 123.905 10.9942C124.762 10.9942 125.496 11.5352 125.783 12.293C125.866 12.5135 125.912 12.7523 125.912 13.0022C125.912 13.0793 125.908 13.1556 125.899 13.23Z" fill="#F0F8F0"/>
<path d="M26.8912 6.65319C27.1098 6.42814 27.4185 6.31608 27.818 6.31608C28.0302 6.31608 28.2112 6.35099 28.3609 6.41896C28.5106 6.48785 28.642 6.5843 28.7541 6.70922L30.57 4.87395C30.2201 4.52489 29.8113 4.24382 29.3438 4.03163C28.8753 3.81944 28.3297 3.71289 27.706 3.71289C26.8949 3.71289 26.183 3.88833 25.5713 4.23739C24.9595 4.58736 24.491 5.05858 24.1668 5.65105C23.8416 6.24443 23.6799 6.91498 23.6799 7.6636V8.43152H21.6582V10.8841H23.6799V17.5307H26.5633V10.885H29.1656V8.43244H26.5633V7.57083C26.5633 7.18412 26.6726 6.87824 26.8912 6.65319Z" fill="#F0F8F0"/>
<path d="M46.2785 8.24512C45.292 8.24512 44.5149 8.53906 43.9472 9.12509C43.9445 9.12877 43.9408 9.13152 43.938 9.1352V8.4325H41.0547V17.5317H43.938V12.5513C43.938 11.9644 44.0786 11.5244 44.3597 11.2313C44.6407 10.9383 45.0247 10.7914 45.5115 10.7914C45.7485 10.7914 45.9607 10.829 46.1481 10.9034C46.3355 10.9787 46.4852 11.0779 46.5973 11.2029L48.3012 9.0314C48.0513 8.76961 47.7611 8.57304 47.4304 8.44169C47.0997 8.31033 46.7158 8.24512 46.2785 8.24512Z" fill="#F0F8F0"/>
<path d="M54.4613 13.6562C54.4613 14.1311 54.3401 14.505 54.0967 14.7796C53.8533 15.0542 53.5189 15.1911 53.0945 15.1911C52.807 15.1911 52.5581 15.1287 52.3459 15.0037C52.1337 14.8788 51.9711 14.7015 51.8591 14.47C51.747 14.2395 51.691 13.9676 51.691 13.6553V8.43237H48.8076V13.6939C48.8076 14.4802 48.9886 15.1764 49.3505 15.7817C49.7124 16.3871 50.2213 16.8647 50.8762 17.2138C51.5311 17.5628 52.2715 17.7383 53.0945 17.7383C53.9176 17.7383 54.6864 17.5665 55.3229 17.223C55.9595 16.8794 56.4555 16.4054 56.8119 15.8001C57.1674 15.1948 57.3456 14.493 57.3456 13.6939V8.43237H54.4623V13.6562H54.4613Z" fill="#F0F8F0"/>
<path d="M71.8918 8.68505C71.3426 8.39203 70.7244 8.24506 70.0382 8.24506C69.352 8.24506 68.6833 8.39478 68.1092 8.69423C67.7225 8.8954 67.3918 9.1581 67.1126 9.47776C66.8508 9.15167 66.5376 8.88346 66.1711 8.67494C65.6659 8.38835 65.101 8.24414 64.4763 8.24414C63.7902 8.24414 63.1812 8.38468 62.6512 8.66576C62.4142 8.7916 62.1992 8.94133 62.0054 9.11401V8.43153H59.1221V17.5308H62.0054V12.2132C62.0054 11.9138 62.0706 11.6575 62.202 11.4453C62.3333 11.2331 62.5106 11.0678 62.7357 10.9493C62.9607 10.8308 63.2161 10.7711 63.5036 10.7711C63.9151 10.7711 64.2614 10.8988 64.5425 11.155C64.8236 11.4113 64.9641 11.7631 64.9641 12.2132V17.5308H67.8474V12.2132C67.8474 11.9138 67.9099 11.6575 68.0348 11.4453C68.1598 11.2331 68.337 11.0678 68.5685 10.9493C68.7991 10.8308 69.0517 10.7711 69.3272 10.7711C69.7268 10.7711 70.0667 10.8988 70.3478 11.155C70.6288 11.4113 70.7694 11.7631 70.7694 12.2132V17.5308H73.6527V11.8761C73.6527 11.1146 73.4966 10.4661 73.1843 9.92877C72.8719 9.39234 72.4411 8.97715 71.8918 8.68321V8.68505Z" fill="#F0F8F0"/>
<path d="M81.8435 8.44169C81.5128 8.31033 81.1288 8.24512 80.6916 8.24512C79.7051 8.24512 78.928 8.53906 78.3603 9.12509C78.3576 9.12877 78.3539 9.13152 78.3511 9.1352V8.4325H75.4678V17.5317H78.3511V12.5513C78.3511 11.9644 78.4917 11.5244 78.7727 11.2313C79.0538 10.9383 79.4378 10.7914 79.9246 10.7914C80.1616 10.7914 80.3738 10.829 80.5612 10.9034C80.7486 10.9787 80.8983 11.0779 81.0103 11.2029L82.7143 9.0314C82.4644 8.76961 82.1742 8.57304 81.8435 8.44169Z" fill="#F0F8F0"/>
<path d="M89.5103 9.1848C89.2651 8.95149 88.9812 8.75675 88.6579 8.6006C88.1647 8.36361 87.6126 8.24512 87.0008 8.24512C86.164 8.24512 85.4191 8.44812 84.7632 8.8532C84.1083 9.2592 83.5902 9.82044 83.209 10.5378C82.8278 11.2561 82.6377 12.07 82.6377 12.9812C82.6377 13.8924 82.8278 14.7007 83.209 15.4062C83.5893 16.1116 84.1111 16.6729 84.7724 17.0917C85.4338 17.5097 86.1769 17.7191 87.0008 17.7191C87.6245 17.7191 88.183 17.6006 88.6763 17.3636C88.9932 17.2112 89.2706 17.0219 89.5094 16.795V17.5326H92.3367V8.4325H89.5094V9.1848H89.5103ZM87.6007 15.1168C87.2139 15.1168 86.8676 15.0268 86.5618 14.8449C86.2559 14.664 86.0125 14.4114 85.8315 14.0862C85.6506 13.762 85.5596 13.3936 85.5596 12.9812C85.5596 12.5688 85.6496 12.2013 85.8315 11.8762C86.0125 11.5519 86.2559 11.2993 86.5618 11.1184C86.8676 10.9374 87.2139 10.8465 87.6007 10.8465C87.9874 10.8465 88.3557 10.9374 88.668 11.1184C88.9794 11.2993 89.2173 11.5492 89.3799 11.867C89.5416 12.1848 89.6233 12.5504 89.6233 12.9619C89.6233 13.5985 89.4387 14.1165 89.0713 14.5161C88.7029 14.9157 88.2133 15.115 87.6016 15.115L87.6007 15.1168Z" fill="#F0F8F0"/>
<path d="M101.55 8.68515C101.013 8.39213 100.389 8.24516 99.6776 8.24516C98.9667 8.24516 98.3797 8.39213 97.8424 8.68515C97.6155 8.80915 97.4106 8.95612 97.2242 9.12422V3.93896H94.3408V17.5318H97.2242V12.3456C97.2242 12.0333 97.2931 11.7586 97.4299 11.5217C97.5668 11.2847 97.7542 11.1 97.9921 10.9696C98.2291 10.8382 98.4973 10.773 98.7977 10.773C99.2468 10.773 99.6216 10.92 99.9211 11.213C100.221 11.506 100.37 11.8845 100.37 12.3456V17.5318H103.254V11.709C103.254 11.0229 103.104 10.4203 102.804 9.90224C102.505 9.38417 102.086 8.97909 101.55 8.68515Z" fill="#F0F8F0"/>
<path d="M106.867 14.2734C106.367 14.2734 105.959 14.4388 105.641 14.7695C105.323 15.1001 105.163 15.5089 105.163 15.9957C105.163 16.4826 105.322 16.8941 105.641 17.2312C105.959 17.5683 106.368 17.7364 106.867 17.7364C107.366 17.7364 107.775 17.5683 108.093 17.2312C108.411 16.8941 108.571 16.4826 108.571 15.9957C108.571 15.5089 108.412 15.1001 108.093 14.7695C107.775 14.4388 107.366 14.2734 106.867 14.2734Z" fill="#F0F8F0"/>
<path d="M115.883 14.9293C115.59 15.0542 115.255 15.1167 114.88 15.1167C114.506 15.1167 114.137 15.0266 113.813 14.8448C113.488 14.6638 113.235 14.4112 113.055 14.086C112.874 13.7618 112.783 13.387 112.783 12.9626C112.783 12.5383 112.873 12.1855 113.055 11.8677C113.236 11.5499 113.486 11.3001 113.804 11.1191C114.122 10.9381 114.481 10.8472 114.88 10.8472C115.242 10.8472 115.564 10.9032 115.845 11.0153C116.126 11.1274 116.372 11.3028 116.584 11.5398L118.438 9.66778C117.976 9.1938 117.449 8.83465 116.856 8.59123C116.263 8.34781 115.604 8.22656 114.881 8.22656C113.932 8.22656 113.077 8.43232 112.316 8.84475C111.554 9.25626 110.955 9.82118 110.518 10.5395C110.081 11.2578 109.863 12.0716 109.863 12.9829C109.863 13.8941 110.078 14.6932 110.509 15.417C110.94 16.1408 111.536 16.7085 112.297 17.1209C113.059 17.5325 113.914 17.7391 114.862 17.7391C115.611 17.7391 116.282 17.6115 116.875 17.3552C117.467 17.0998 118.007 16.7214 118.494 16.2226L116.64 14.3873C116.428 14.6243 116.176 14.8053 115.883 14.9302V14.9293Z" fill="#F0F8F0"/>
<path d="M144.35 9.92963C144.038 9.3932 143.607 8.97801 143.058 8.68407C142.509 8.39105 141.89 8.24408 141.204 8.24408C140.518 8.24408 139.849 8.39381 139.275 8.69326C138.889 8.89442 138.558 9.15713 138.279 9.47679C138.017 9.1507 137.704 8.88248 137.337 8.67397C136.832 8.38738 136.267 8.24316 135.642 8.24316C134.956 8.24316 134.347 8.3837 133.817 8.66478C133.58 8.79062 133.365 8.94035 133.171 9.11304V8.43055H130.288V17.5298H133.171V12.2122C133.171 11.9128 133.237 11.6565 133.368 11.4443C133.499 11.2321 133.677 11.0668 133.902 10.9483C134.127 10.8298 134.382 10.7701 134.67 10.7701C135.081 10.7701 135.427 10.8978 135.708 11.1541C135.99 11.4103 136.13 11.7622 136.13 12.2122V17.5298H139.013V12.2122C139.013 11.9128 139.076 11.6565 139.201 11.4443C139.326 11.2321 139.503 11.0668 139.735 10.9483C139.965 10.8298 140.218 10.7701 140.493 10.7701C140.893 10.7701 141.233 10.8978 141.514 11.1541C141.795 11.4103 141.935 11.7622 141.935 12.2122V17.5298H144.819V11.8751C144.819 11.1137 144.663 10.4652 144.35 9.9278V9.92963Z" fill="#F0F8F0"/>
<path d="M10.4616 18.1718C10.4616 20.9146 8.23777 23.1384 5.49496 23.1384C2.75215 23.1384 0.52832 20.9146 0.52832 18.1718H3.03506C3.03506 19.5303 4.13641 20.6317 5.49496 20.6317C6.45669 20.6317 7.28982 20.0796 7.69398 19.2759C8.50691 19.0894 9.24267 18.7036 9.84892 18.1718C10.0574 17.989 10.2503 17.7887 10.4258 17.5747C10.4497 17.7704 10.4616 17.9697 10.4616 18.1718Z" fill="#1CB78D"/>
<path d="M5.49496 10.7453C4.13641 10.7453 3.03506 11.8466 3.03506 13.2052C3.03506 13.4155 3.0617 13.6185 3.1113 13.8132C3.38228 14.8779 4.34676 15.6641 5.49496 15.6641C6.64315 15.6641 7.60856 14.8769 7.87953 13.8132C7.92913 13.6185 7.95577 13.4146 7.95577 13.2052H10.4625C10.4625 14.1099 10.2209 14.9578 9.79748 15.688C9.35749 16.4495 8.72001 17.0833 7.95577 17.5196C7.93097 17.5343 7.90525 17.5481 7.87953 17.5619C7.17224 17.9504 6.35932 18.1709 5.49496 18.1709C4.6306 18.1709 3.81859 17.9504 3.1113 17.5619C2.84308 17.4149 2.59048 17.245 2.35625 17.053C1.89146 16.6736 1.49556 16.2107 1.19336 15.688C0.770819 14.9578 0.52832 14.109 0.52832 13.2052C0.52832 12.3013 0.765308 11.47 1.17958 10.7453C2.03475 9.24802 3.64682 8.23853 5.49496 8.23853H10.4616V10.7453H5.49496Z" fill="#1CB78D"/>
</svg>
