<svg width="25" height="24" viewBox="0 0 25 24" fill="none" xmlns="http://www.w3.org/2000/svg">
<path d="M8.39285 15C11.0852 15 13.2679 12.8174 13.2679 10.125C13.2679 7.43261 11.0852 5.25 8.39285 5.25C5.70046 5.25 3.51785 7.43261 3.51785 10.125C3.51785 12.8174 5.70046 15 8.39285 15Z" stroke="#616161" stroke-width="1.5" stroke-linecap="round" stroke-linejoin="round"/>
<path d="M14.7127 5.4316C15.3833 5.24268 16.0865 5.19964 16.775 5.30538C17.4636 5.41113 18.1215 5.66319 18.7044 6.04461C19.2873 6.42602 19.7818 6.92793 20.1544 7.51652C20.527 8.10511 20.7692 8.76672 20.8646 9.45678C20.96 10.1468 20.9064 10.8493 20.7074 11.5169C20.5085 12.1845 20.1687 12.8018 19.7112 13.327C19.2536 13.8523 18.6887 14.2734 18.0547 14.562C17.4207 14.8506 16.7321 14.9999 16.0355 15" stroke="#616161" stroke-width="1.5" stroke-linecap="round" stroke-linejoin="round"/>
<path d="M1.64246 18.5059C2.40383 17.4229 3.4146 16.539 4.58944 15.9288C5.76428 15.3186 7.06868 15.0001 8.39253 15C9.71639 14.9999 11.0208 15.3184 12.1957 15.9285C13.3706 16.5386 14.3814 17.4225 15.1429 18.5054" stroke="#616161" stroke-width="1.5" stroke-linecap="round" stroke-linejoin="round"/>
<path d="M16.0355 15C17.3595 14.999 18.6642 15.3171 19.8392 15.9273C21.0142 16.5375 22.0248 17.4218 22.7856 18.5054" stroke="#616161" stroke-width="1.5" stroke-linecap="round" stroke-linejoin="round"/>
</svg>
